<?xml version="1.0" encoding="utf-8"?>
<svg xmlns="http://www.w3.org/2000/svg" xmlns:xlink="http://www.w3.org/1999/xlink" style="margin: auto; background: rgba(0, 0, 0, 0) none repeat scroll 0% 0%; display: block; z-index: 1; position: relative; shape-rendering: auto;" width="1920" height="150" preserveAspectRatio="xMidYMid" viewBox="0 0 1920 150">
<g transform="translate(960,75) scale(1,1) translate(-960,-75)"><defs>
  <linearGradient id="ldbk-photon-r2an53zy50p-lg" x1="864" x2="1920" y1="0" y2="0" gradientUnits="userSpaceOnUse">
    <stop stop-color="#247cfd" offset="0"></stop>
    <stop stop-color="#3a2d94" offset="1"></stop>
  </linearGradient>
  <mask id="ldbk-photon-r2an53zy50p-mask">
  <g><path d="M2220 -0.5 L813.8222060290484 -0.5 A5 5 0 0 1 813.8222060290484 10.5 L2220 10.5" fill="#fff">
  <animateTransform attributeName="transform" type="translate" dur="3.3333333333333335s" repeatCount="indefinite" keyTimes="0;0.5;1" calcMode="spline" keySplines="0.5 0 0.5 1;0.5 0 0.5 1" values="171.47912102864836;0;171.47912102864836" begin="0s"></animateTransform>
</path><path d="M1954.4455564618088 -0.5 L1978.8911129236176 -0.5 A5 5 0 0 1 1978.8911129236176 10.5 L1954.4455564618088 10.5 A5 5 0 0 1 1954.4455564618088 -0.5" fill="#000">
  <animateTransform attributeName="transform" type="translate" dur="10s" repeatCount="indefinite" keyTimes="0;1" values="0;-2008.2846771607483" begin="0s"></animateTransform>
  <animate attributeName="opacity" dur="10s" repeatCount="indefinite" keyTimes="0;0.3;1" values="1;1;0" begin="0s"></animate>
</path><path d="M2220 9.5 L801.6201067367745 9.5 A5 5 0 0 0 801.6201067367745 20.5 L2220 20.5" fill="#fff">
  <animateTransform attributeName="transform" type="translate" dur="5s" repeatCount="indefinite" keyTimes="0;0.5;1" calcMode="spline" keySplines="0.5 0 0.5 1;0.5 0 0.5 1" values="-144.39667299128445;0;-144.39667299128445" begin="-2s"></animateTransform>
</path><path d="M911.9756946786777 9.5 L934.5117593713265 9.5 A5 5 0 0 1 934.5117593713265 20.5 L911.9756946786777 20.5 A5 5 0 0 1 911.9756946786777 9.5" fill="#fff">
  <animateTransform attributeName="transform" type="translate" dur="10s" repeatCount="indefinite" keyTimes="0;1" values="0;0" begin="-2s"></animateTransform>
  <animate attributeName="opacity" dur="10s" repeatCount="indefinite" keyTimes="0;0.3;1" values="1;1;0" begin="-2s"></animate>
</path><path d="M2220 19.5 L825.36565517044 19.5 A5 5 0 0 1 825.36565517044 30.5 L2220 30.5" fill="#fff">
  <animateTransform attributeName="transform" type="translate" dur="5s" repeatCount="indefinite" keyTimes="0;0.5;1" calcMode="spline" keySplines="0.5 0 0.5 1;0.5 0 0.5 1" values="129.28975628997313;0;129.28975628997313" begin="-4s"></animateTransform>
</path><path d="M1944.2181576825249 19.5 L1958.4363153650497 19.5 A5 5 0 0 1 1958.4363153650497 30.5 L1944.2181576825249 30.5 A5 5 0 0 1 1944.2181576825249 19.5" fill="#000">
  <animateTransform attributeName="transform" type="translate" dur="10s" repeatCount="indefinite" keyTimes="0;1" values="0;-2260.8175921512875" begin="-4s"></animateTransform>
  <animate attributeName="opacity" dur="10s" repeatCount="indefinite" keyTimes="0;0.3;1" values="1;1;0" begin="-4s"></animate>
</path><path d="M2220 29.5 L819.1283044459071 29.5 A5 5 0 0 0 819.1283044459071 40.5 L2220 40.5" fill="#fff">
  <animateTransform attributeName="transform" type="translate" dur="10s" repeatCount="indefinite" keyTimes="0;0.5;1" calcMode="spline" keySplines="0.5 0 0.5 1;0.5 0 0.5 1" values="-164.8561962829776;0;-164.8561962829776" begin="-6.000000000000001s"></animateTransform>
</path><path d="M861.8083045763835 29.5 L882.7902621336635 29.5 A5 5 0 0 1 882.7902621336635 40.5 L861.8083045763835 40.5 A5 5 0 0 1 861.8083045763835 29.5" fill="#fff">
  <animateTransform attributeName="transform" type="translate" dur="3.3333333333333335s" repeatCount="indefinite" keyTimes="0;1" values="0;0" begin="-6.000000000000001s"></animateTransform>
  <animate attributeName="opacity" dur="3.3333333333333335s" repeatCount="indefinite" keyTimes="0;0.3;1" values="1;1;0" begin="-6.000000000000001s"></animate>
</path><path d="M2220 39.5 L824.0878136713434 39.5 A5 5 0 0 1 824.0878136713434 50.5 L2220 50.5" fill="#fff">
  <animateTransform attributeName="transform" type="translate" dur="3.3333333333333335s" repeatCount="indefinite" keyTimes="0;0.5;1" calcMode="spline" keySplines="0.5 0 0.5 1;0.5 0 0.5 1" values="132.37563394892686;0;132.37563394892686" begin="-8s"></animateTransform>
</path><path d="M1944.786418060528 39.5 L1959.5728361210558 39.5 A5 5 0 0 1 1959.5728361210558 50.5 L1944.786418060528 50.5 A5 5 0 0 1 1944.786418060528 39.5" fill="#000">
  <animateTransform attributeName="transform" type="translate" dur="5s" repeatCount="indefinite" keyTimes="0;1" values="0;-2148.0725834485957" begin="-8s"></animateTransform>
  <animate attributeName="opacity" dur="5s" repeatCount="indefinite" keyTimes="0;0.3;1" values="1;1;0" begin="-8s"></animate>
</path><path d="M2220 49.5 L827.9427084188583 49.5 A5 5 0 0 0 827.9427084188583 60.5 L2220 60.5" fill="#fff">
  <animateTransform attributeName="transform" type="translate" dur="10s" repeatCount="indefinite" keyTimes="0;0.5;1" calcMode="spline" keySplines="0.5 0 0.5 1;0.5 0 0.5 1" values="-136.45399226269743;0;-136.45399226269743" begin="-10s"></animateTransform>
</path><path d="M858.0957673540752 49.5 L895.8399240771602 49.5 A5 5 0 0 1 895.8399240771602 60.5 L858.0957673540752 60.5 A5 5 0 0 1 858.0957673540752 49.5" fill="#fff">
  <animateTransform attributeName="transform" type="translate" dur="3.3333333333333335s" repeatCount="indefinite" keyTimes="0;1" values="0;0" begin="-10s"></animateTransform>
  <animate attributeName="opacity" dur="3.3333333333333335s" repeatCount="indefinite" keyTimes="0;0.3;1" values="1;1;0" begin="-10s"></animate>
</path><path d="M2220 59.5 L836.2899129636173 59.5 A5 5 0 0 1 836.2899129636173 70.5 L2220 70.5" fill="#fff">
  <animateTransform attributeName="transform" type="translate" dur="10s" repeatCount="indefinite" keyTimes="0;0.5;1" calcMode="spline" keySplines="0.5 0 0.5 1;0.5 0 0.5 1" values="171.27622829624727;0;171.27622829624727" begin="-12.000000000000002s"></animateTransform>
</path><path d="M1958.2201456360012 59.5 L1986.4402912720025 59.5 A5 5 0 0 1 1986.4402912720025 70.5 L1958.2201456360012 70.5 A5 5 0 0 1 1958.2201456360012 59.5" fill="#000">
  <animateTransform attributeName="transform" type="translate" dur="3.3333333333333335s" repeatCount="indefinite" keyTimes="0;1" values="0;-1653.9275390212745" begin="-12.000000000000002s"></animateTransform>
  <animate attributeName="opacity" dur="3.3333333333333335s" repeatCount="indefinite" keyTimes="0;0.3;1" values="1;1;0" begin="-12.000000000000002s"></animate>
</path><path d="M2220 69.5 L810.2173236241292 69.5 A5 5 0 0 0 810.2173236241292 80.5 L2220 80.5" fill="#fff">
  <animateTransform attributeName="transform" type="translate" dur="5s" repeatCount="indefinite" keyTimes="0;0.5;1" calcMode="spline" keySplines="0.5 0 0.5 1;0.5 0 0.5 1" values="-150.41334496491996;0;-150.41334496491996" begin="-14s"></animateTransform>
</path><path d="M915.3079749268054 69.5 L927.4335665295256 69.5 A5 5 0 0 1 927.4335665295256 80.5 L915.3079749268054 80.5 A5 5 0 0 1 915.3079749268054 69.5" fill="#fff">
  <animateTransform attributeName="transform" type="translate" dur="5s" repeatCount="indefinite" keyTimes="0;1" values="0;0" begin="-14s"></animateTransform>
  <animate attributeName="opacity" dur="5s" repeatCount="indefinite" keyTimes="0;0.3;1" values="1;1;0" begin="-14s"></animate>
</path><path d="M2220 79.5 L845.2483388858709 79.5 A5 5 0 0 1 845.2483388858709 90.5 L2220 90.5" fill="#fff">
  <animateTransform attributeName="transform" type="translate" dur="10s" repeatCount="indefinite" keyTimes="0;0.5;1" calcMode="spline" keySplines="0.5 0 0.5 1;0.5 0 0.5 1" values="149.67246449128282;0;149.67246449128282" begin="-16s"></animateTransform>
</path><path d="M1942.0479053295962 79.5 L1954.0958106591925 79.5 A5 5 0 0 1 1954.0958106591925 90.5 L1942.0479053295962 90.5 A5 5 0 0 1 1942.0479053295962 79.5" fill="#000">
  <animateTransform attributeName="transform" type="translate" dur="3.3333333333333335s" repeatCount="indefinite" keyTimes="0;1" values="0;-1950.9625438901421" begin="-16s"></animateTransform>
  <animate attributeName="opacity" dur="3.3333333333333335s" repeatCount="indefinite" keyTimes="0;0.3;1" values="1;1;0" begin="-16s"></animate>
</path><path d="M2220 89.5 L856.6445457301124 89.5 A5 5 0 0 0 856.6445457301124 100.5 L2220 100.5" fill="#fff">
  <animateTransform attributeName="transform" type="translate" dur="5s" repeatCount="indefinite" keyTimes="0;0.5;1" calcMode="spline" keySplines="0.5 0 0.5 1;0.5 0 0.5 1" values="-136.68436628829312;0;-136.68436628829312" begin="-18s"></animateTransform>
</path><path d="M916.6225694074361 89.5 L951.7888614848987 89.5 A5 5 0 0 1 951.7888614848987 100.5 L916.6225694074361 100.5 A5 5 0 0 1 916.6225694074361 89.5" fill="#fff">
  <animateTransform attributeName="transform" type="translate" dur="3.3333333333333335s" repeatCount="indefinite" keyTimes="0;1" values="0;0" begin="-18s"></animateTransform>
  <animate attributeName="opacity" dur="3.3333333333333335s" repeatCount="indefinite" keyTimes="0;0.3;1" values="1;1;0" begin="-18s"></animate>
</path><path d="M2220 99.5 L865.1102305619634 99.5 A5 5 0 0 1 865.1102305619634 110.5 L2220 110.5" fill="#fff">
  <animateTransform attributeName="transform" type="translate" dur="5s" repeatCount="indefinite" keyTimes="0;0.5;1" calcMode="spline" keySplines="0.5 0 0.5 1;0.5 0 0.5 1" values="158.21045887515152;0;158.21045887515152" begin="-20s"></animateTransform>
</path><path d="M1950.4660590328886 99.5 L1970.932118065777 99.5 A5 5 0 0 1 1970.932118065777 110.5 L1950.4660590328886 110.5 A5 5 0 0 1 1950.4660590328886 99.5" fill="#000">
  <animateTransform attributeName="transform" type="translate" dur="10s" repeatCount="indefinite" keyTimes="0;1" values="0;-1764.7876818765317" begin="-20s"></animateTransform>
  <animate attributeName="opacity" dur="10s" repeatCount="indefinite" keyTimes="0;0.3;1" values="1;1;0" begin="-20s"></animate>
</path><path d="M2220 109.5 L868.9651253094785 109.5 A5 5 0 0 0 868.9651253094785 120.5 L2220 120.5" fill="#fff">
  <animateTransform attributeName="transform" type="translate" dur="10s" repeatCount="indefinite" keyTimes="0;0.5;1" calcMode="spline" keySplines="0.5 0 0.5 1;0.5 0 0.5 1" values="-149.99636440598906;0;-149.99636440598906" begin="-21.999999999999996s"></animateTransform>
</path><path d="M928.7061884126178 109.5 L962.109119895944 109.5 A5 5 0 0 1 962.109119895944 120.5 L928.7061884126178 120.5 A5 5 0 0 1 928.7061884126178 109.5" fill="#fff">
  <animateTransform attributeName="transform" type="translate" dur="10s" repeatCount="indefinite" keyTimes="0;1" values="0;0" begin="-21.999999999999996s"></animateTransform>
  <animate attributeName="opacity" dur="10s" repeatCount="indefinite" keyTimes="0;0.3;1" values="1;1;0" begin="-21.999999999999996s"></animate>
</path><path d="M2220 119.5 L867.661163937285 119.5 A5 5 0 0 1 867.661163937285 130.5 L2220 130.5" fill="#fff">
  <animateTransform attributeName="transform" type="translate" dur="5s" repeatCount="indefinite" keyTimes="0;0.5;1" calcMode="spline" keySplines="0.5 0 0.5 1;0.5 0 0.5 1" values="126.03136378640822;0;126.03136378640822" begin="-24.000000000000004s"></animateTransform>
</path><path d="M1966.0512129219478 119.5 L2002.1024258438956 119.5 A5 5 0 0 1 2002.1024258438956 130.5 L1966.0512129219478 130.5 A5 5 0 0 1 1966.0512129219478 119.5" fill="#000">
  <animateTransform attributeName="transform" type="translate" dur="10s" repeatCount="indefinite" keyTimes="0;1" values="0;-2377.8775655232603" begin="-24.000000000000004s"></animateTransform>
  <animate attributeName="opacity" dur="10s" repeatCount="indefinite" keyTimes="0;0.3;1" values="1;1;0" begin="-24.000000000000004s"></animate>
</path><path d="M2220 129.5 L853.922415030408 129.5 A5 5 0 0 0 853.922415030408 140.5 L2220 140.5" fill="#fff">
  <animateTransform attributeName="transform" type="translate" dur="5s" repeatCount="indefinite" keyTimes="0;0.5;1" calcMode="spline" keySplines="0.5 0 0.5 1;0.5 0 0.5 1" values="-103.01402765269924;0;-103.01402765269924" begin="-26s"></animateTransform>
</path><path d="M928.6662744982355 129.5 L947.3027090299454 129.5 A5 5 0 0 1 947.3027090299454 140.5 L928.6662744982355 140.5 A5 5 0 0 1 928.6662744982355 129.5" fill="#fff">
  <animateTransform attributeName="transform" type="translate" dur="3.3333333333333335s" repeatCount="indefinite" keyTimes="0;1" values="0;0" begin="-26s"></animateTransform>
  <animate attributeName="opacity" dur="3.3333333333333335s" repeatCount="indefinite" keyTimes="0;0.3;1" values="1;1;0" begin="-26s"></animate>
</path><path d="M2220 139.5 L847.4831933701339 139.5 A5 5 0 0 1 847.4831933701339 150.5 L2220 150.5" fill="#fff">
  <animateTransform attributeName="transform" type="translate" dur="5s" repeatCount="indefinite" keyTimes="0;0.5;1" calcMode="spline" keySplines="0.5 0 0.5 1;0.5 0 0.5 1" values="104.29081824156185;0;104.29081824156185" begin="-28s"></animateTransform>
</path><path d="M1942.71343781645 139.5 L1955.4268756329002 139.5 A5 5 0 0 1 1955.4268756329002 150.5 L1942.71343781645 150.5 A5 5 0 0 1 1942.71343781645 139.5" fill="#000">
  <animateTransform attributeName="transform" type="translate" dur="5s" repeatCount="indefinite" keyTimes="0;1" values="0;-2011.0805979213671" begin="-28s"></animateTransform>
  <animate attributeName="opacity" dur="5s" repeatCount="indefinite" keyTimes="0;0.3;1" values="1;1;0" begin="-28s"></animate>
</path>    </g>
  </mask>
</defs>
<rect x="0" y="0" width="1920" height="150" fill="url(#ldbk-photon-r2an53zy50p-lg)" mask="url(#ldbk-photon-r2an53zy50p-mask)"></rect></g>
</svg>