<?xml version="1.0" encoding="utf-8"?><svg xmlns="http://www.w3.org/2000/svg" xmlns:xlink="http://www.w3.org/1999/xlink" width="1920" height="300" preserveAspectRatio="xMidYMid" viewBox="0 0 1920 300" style="z-index:1;display:block;animation-play-state:paused" ><g transform="translate(960,150) scale(1,1) translate(-960,-150)" style="animation-play-state:paused" ><defs style="animation-play-state:paused" ><linearGradient id="ldbk-photon-3kjux0bbt9h-lg" x1="729.5999999999999" x2="1920" y1="0" y2="0" gradientUnits="userSpaceOnUse" style="animation-play-state:paused" ><stop stop-color="#247cfd" offset="0" style="animation-play-state:paused" ></stop>

    
<stop stop-color="#3a2d94" offset="1" style="animation-play-state:paused" ></stop></linearGradient>

  
<mask id="ldbk-photon-3kjux0bbt9h-mask" style="animation-play-state:paused" ><g style="animation-play-state:paused" ><path d="M2220 -0.5 L692.8450324083403 -0.5 A6 6 0 0 1 692.8450324083403 12.5 L2220 12.5" fill="#fff" transform="matrix(1,0,0,1,37.11040496826172,0)" style="animation-play-state:paused" ></path>
<path d="M1954.039944341685 -0.5 L1976.07988868337 -0.5 A6 6 0 0 1 1976.07988868337 12.5 L1954.039944341685 12.5 A6 6 0 0 1 1954.039944341685 -0.5" fill="#000" transform="matrix(1,0,0,1,0,0)" opacity="1" style="animation-play-state:paused" ></path>
<path d="M2220 11.5 L682.3095238507649 11.5 A6 6 0 0 0 682.3095238507649 24.5 L2220 24.5" fill="#fff" transform="matrix(1,0,0,1,-5.867098808288574,0)" style="animation-play-state:paused" ></path>
<path d="M773.9690829193437 11.5 L807.7392491364701 11.5 A6 6 0 0 1 807.7392491364701 24.5 L773.9690829193437 24.5 A6 6 0 0 1 773.9690829193437 11.5" fill="#fff" transform="matrix(1,0,0,1,0,0)" opacity="1" style="animation-play-state:paused" ></path>
<path d="M2220 23.5 L680.0876450132282 23.5 A6 6 0 0 1 680.0876450132282 36.5 L2220 36.5" fill="#fff" transform="matrix(1,0,0,1,18.90546417236328,0)" style="animation-play-state:paused" ></path>
<path d="M1942.156213270297 23.5 L1952.312426540594 23.5 A6 6 0 0 1 1952.312426540594 36.5 L1942.156213270297 36.5 A6 6 0 0 1 1942.156213270297 23.5" fill="#000" transform="matrix(1,0,0,1,-1639.0537109375,0)" opacity="0.399897" style="opacity:0.399897;animation-play-state:paused" ></path>
<path d="M2220 35.5 L674.003842058419 35.5 A6 6 0 0 0 674.003842058419 48.5 L2220 48.5" fill="#fff" transform="matrix(1,0,0,1,-4.540043354034424,0)" style="animation-play-state:paused" ></path>
<path d="M756.1233315858597 35.5 L789.013941129812 35.5 A6 6 0 0 1 789.013941129812 48.5 L756.1233315858597 48.5 A6 6 0 0 1 756.1233315858597 35.5" fill="#fff" transform="matrix(1,0,0,1,0,0)" opacity="0.4" style="opacity:0.4;animation-play-state:paused" ></path>
<path d="M2220 47.5 L669.2104174712192 47.5 A6 6 0 0 1 669.2104174712192 60.5 L2220 60.5" fill="#fff" transform="matrix(1,0,0,1,0.08665870875120163,0)" style="animation-play-state:paused" ></path>
<path d="M1962.1683145115644 47.5 L1992.3366290231288 47.5 A6 6 0 0 1 1992.3366290231288 60.5 L1962.1683145115644 60.5 A6 6 0 0 1 1962.1683145115644 47.5" fill="#000" transform="matrix(1,0,0,1,-1193.59130859375,0)" opacity="0.742857" style="opacity:0.742857;animation-play-state:paused" ></path>
<path d="M2220 59.5 L659.8377328968072 59.5 A6 6 0 0 0 659.8377328968072 72.5 L2220 72.5" fill="#fff" transform="matrix(1,0,0,1,-20.432819366455078,0)" style="animation-play-state:paused" ></path>
<path d="M754.2988761254833 59.5 L785.2694650504459 59.5 A6 6 0 0 1 785.2694650504459 72.5 L754.2988761254833 72.5 A6 6 0 0 1 754.2988761254833 59.5" fill="#fff" transform="matrix(1,0,0,1,0,0)" opacity="0.285457" style="opacity:0.285457;animation-play-state:paused" ></path>
<path d="M2220 71.5 L658.4286265328137 71.5 A6 6 0 0 1 658.4286265328137 84.5 L2220 84.5" fill="#fff" transform="matrix(1,0,0,1,0.5975490212440491,0)" style="animation-play-state:paused" ></path>
<path d="M1954.1378733224722 71.5 L1976.2757466449443 71.5 A6 6 0 0 1 1976.2757466449443 84.5 L1954.1378733224722 84.5 A6 6 0 0 1 1954.1378733224722 71.5" fill="#000" transform="matrix(1,0,0,1,-759.4918823242188,0)" opacity="0.8" style="opacity:0.8;animation-play-state:paused" ></path>
<path d="M2220 83.5 L657.5939597410998 83.5 A6 6 0 0 0 657.5939597410998 96.5 L2220 96.5" fill="#fff" transform="matrix(1,0,0,1,-18.117937088012695,0)" style="animation-play-state:paused" ></path>
<path d="M754.668805215179 83.5 L774.7291546761603 83.5 A6 6 0 0 1 774.7291546761603 96.5 L754.668805215179 96.5 A6 6 0 0 1 754.668805215179 83.5" fill="#fff" transform="matrix(1,0,0,1,0,0)" opacity="0.457143" style="opacity:0.457143;animation-play-state:paused" ></path>
<path d="M2220 95.5 L689.0408973161934 95.5 A6 6 0 0 1 689.0408973161934 108.5 L2220 108.5" fill="#fff" transform="matrix(1,0,0,1,26.336238861083984,0)" style="animation-play-state:paused" ></path>
<path d="M1965.6330048323823 95.5 L1999.2660096647646 95.5 A6 6 0 0 1 1999.2660096647646 108.5 L1965.6330048323823 108.5 A6 6 0 0 1 1965.6330048323823 95.5" fill="#000" transform="matrix(1,0,0,1,-1875.983642578125,0)" opacity="0.114286" style="opacity:0.114286;animation-play-state:paused" ></path>
<path d="M2220 107.5 L660.2053832679505 107.5 A6 6 0 0 0 660.2053832679505 120.5 L2220 120.5" fill="#fff" transform="matrix(1,0,0,1,-28.202417373657227,0)" style="animation-play-state:paused" ></path>
<path d="M764.7638221655018 107.5 L783.3749239421059 107.5 A6 6 0 0 1 783.3749239421059 120.5 L764.7638221655018 120.5 A6 6 0 0 1 764.7638221655018 107.5" fill="#fff" transform="matrix(1,0,0,1,0,0)" opacity="1" style="animation-play-state:paused" ></path>
<path d="M2220 119.5 L668.801347965104 119.5 A6 6 0 0 1 668.801347965104 132.5 L2220 132.5" fill="#fff" transform="matrix(1,0,0,1,2.6054296493530273,0)" style="animation-play-state:paused" ></path>
<path d="M1965.4094453772082 119.5 L1998.8188907544163 119.5 A6 6 0 0 1 1998.8188907544163 132.5 L1965.4094453772082 132.5 A6 6 0 0 1 1965.4094453772082 119.5" fill="#000" transform="matrix(1,0,0,1,-999.2514038085938,0)" opacity="0.570914" style="opacity:0.570914;animation-play-state:paused" ></path>
<path d="M2220 131.5 L662.2680119785261 131.5 A6 6 0 0 0 662.2680119785261 144.5 L2220 144.5" fill="#fff" transform="matrix(1,0,0,1,-6.044586181640625,0)" style="animation-play-state:paused" ></path>
<path d="M786.844514860393 131.5 L809.7970759085272 131.5 A6 6 0 0 1 809.7970759085272 144.5 L786.844514860393 144.5 A6 6 0 0 1 786.844514860393 131.5" fill="#fff" transform="matrix(1,0,0,1,0,0)" opacity="0.514286" style="opacity:0.514286;animation-play-state:paused" ></path>
<path d="M2220 143.5 L702.8287662711971 143.5 A6 6 0 0 1 702.8287662711971 156.5 L2220 156.5" fill="#fff" transform="matrix(1,0,0,1,29.79897689819336,0)" style="animation-play-state:paused" ></path>
<path d="M1970.8506085923768 143.5 L2009.7012171847537 143.5 A6 6 0 0 1 2009.7012171847537 156.5 L1970.8506085923768 156.5 A6 6 0 0 1 1970.8506085923768 143.5" fill="#000" transform="matrix(1,0,0,1,-1875.353515625,0)" opacity="0.171429" style="opacity:0.171429;animation-play-state:paused" ></path>
<path d="M2220 155.5 L710.3487602850553 155.5 A6 6 0 0 0 710.3487602850553 168.5 L2220 168.5" fill="#fff" transform="matrix(1,0,0,1,-10.40744686126709,0)" style="animation-play-state:paused" ></path>
<path d="M768.3712337288027 155.5 L779.1653746573709 155.5 A6 6 0 0 1 779.1653746573709 168.5 L768.3712337288027 168.5 A6 6 0 0 1 768.3712337288027 155.5" fill="#fff" transform="matrix(1,0,0,1,0,0)" opacity="0.456474" style="opacity:0.456474;animation-play-state:paused" ></path>
<path d="M2220 167.5 L717.6324998586665 167.5 A6 6 0 0 1 717.6324998586665 180.5 L2220 180.5" fill="#fff" transform="matrix(1,0,0,1,38.84598922729492,0)" style="animation-play-state:paused" ></path>
<path d="M1960.1022373088601 167.5 L1988.2044746177203 167.5 A6 6 0 0 1 1988.2044746177203 180.5 L1960.1022373088601 180.5 A6 6 0 0 1 1960.1022373088601 167.5" fill="#000" transform="matrix(1,0,0,1,-1389.8914794921875,0)" opacity="0.457143" style="opacity:0.457143;animation-play-state:paused" ></path>
<path d="M2220 179.5 L718.0150922828225 179.5 A6 6 0 0 0 718.0150922828225 192.5 L2220 192.5" fill="#fff" transform="matrix(1,0,0,1,-17.255908966064453,0)" style="animation-play-state:paused" ></path>
<path d="M788.4520228547258 179.5 L816.4957375745398 179.5 A6 6 0 0 1 816.4957375745398 192.5 L788.4520228547258 192.5 A6 6 0 0 1 788.4520228547258 179.5" fill="#fff" transform="matrix(1,0,0,1,0,0)" opacity="0.285714" style="opacity:0.285714;animation-play-state:paused" ></path>
<path d="M2220 191.5 L738.9926470201017 191.5 A6 6 0 0 1 738.9926470201017 204.5 L2220 204.5" fill="#fff" transform="matrix(1,0,0,1,23.083370208740234,0)" style="animation-play-state:paused" ></path>
<path d="M1966.8227716001247 191.5 L2001.6455432002494 191.5 A6 6 0 0 1 2001.6455432002494 204.5 L1966.8227716001247 204.5 A6 6 0 0 1 1966.8227716001247 191.5" fill="#000" transform="matrix(1,0,0,1,-1325.259033203125,0)" opacity="0.228571" style="opacity:0.228571;animation-play-state:paused" ></path>
<path d="M2220 203.5 L740.1200589223693 203.5 A6 6 0 0 0 740.1200589223693 216.5 L2220 216.5" fill="#fff" transform="matrix(1,0,0,1,-31.689863204956055,0)" style="animation-play-state:paused" ></path>
<path d="M785.3695642255918 203.5 L803.4176937076476 203.5 A6 6 0 0 1 803.4176937076476 216.5 L785.3695642255918 216.5 A6 6 0 0 1 785.3695642255918 203.5" fill="#fff" transform="matrix(1,0,0,1,0,0)" opacity="1" style="animation-play-state:paused" ></path>
<path d="M2220 215.5 L742.4438648702492 215.5 A6 6 0 0 1 742.4438648702492 228.5 L2220 228.5" fill="#fff" transform="matrix(1,0,0,1,6.261105060577393,0)" style="animation-play-state:paused" ></path>
<path d="M1943.0935230839555 215.5 L1954.187046167911 215.5 A6 6 0 0 1 1954.187046167911 228.5 L1943.0935230839555 228.5 A6 6 0 0 1 1943.0935230839555 215.5" fill="#000" transform="matrix(1,0,0,1,-290.1579284667969,0)" opacity="1" style="animation-play-state:paused" ></path>
<path d="M2220 227.5 L704.8407262564617 227.5 A6 6 0 0 0 704.8407262564617 240.5 L2220 240.5" fill="#fff" transform="matrix(1,0,0,1,-25.524606704711914,0)" style="animation-play-state:paused" ></path>
<path d="M826.2408774492344 227.5 L858.7003892319868 227.5 A6 6 0 0 1 858.7003892319868 240.5 L826.2408774492344 240.5 A6 6 0 0 1 826.2408774492344 227.5" fill="#fff" transform="matrix(1,0,0,1,0,0)" opacity="0.628571" style="opacity:0.628571;animation-play-state:paused" ></path>
<path d="M2220 239.5 L725.1130404265944 239.5 A6 6 0 0 1 725.1130404265944 252.5 L2220 252.5" fill="#fff" transform="matrix(1,0,0,1,25.69375991821289,0)" style="animation-play-state:paused" ></path>
<path d="M1971.7668922849448 239.5 L2011.5337845698896 239.5 A6 6 0 0 1 2011.5337845698896 252.5 L1971.7668922849448 252.5 A6 6 0 0 1 1971.7668922849448 239.5" fill="#000" transform="matrix(1,0,0,1,-407.6457214355469,0)" opacity="1" style="animation-play-state:paused" ></path>
<path d="M2220 251.5 L701.5205047454972 251.5 A6 6 0 0 0 701.5205047454972 264.5 L2220 264.5" fill="#fff" transform="matrix(1,0,0,1,-37.79842758178711,0)" style="animation-play-state:paused" ></path>
<path d="M820.3391707846233 251.5 L852.4295740974367 251.5 A6 6 0 0 1 852.4295740974367 264.5 L820.3391707846233 264.5 A6 6 0 0 1 820.3391707846233 251.5" fill="#fff" transform="matrix(1,0,0,1,0,0)" opacity="1" style="animation-play-state:paused" ></path>
<path d="M2220 263.5 L703.948078331606 263.5 A6 6 0 0 1 703.948078331606 276.5 L2220 276.5" fill="#fff" transform="matrix(1,0,0,1,9.09007740020752,0)" style="animation-play-state:paused" ></path>
<path d="M1960.6545894828207 263.5 L1989.3091789656414 263.5 A6 6 0 0 1 1989.3091789656414 276.5 L1960.6545894828207 276.5 A6 6 0 0 1 1960.6545894828207 263.5" fill="#000" transform="matrix(1,0,0,1,-1045.595703125,0)" opacity="0.514286" style="opacity:0.514286;animation-play-state:paused" ></path>
<path d="M2220 275.5 L697.864275376797 275.5 A6 6 0 0 0 697.864275376797 288.5 L2220 288.5" fill="#fff" transform="matrix(1,0,0,1,-0.0765015259385109,0)" style="animation-play-state:paused" ></path>
<path d="M802.240945069306 275.5 L824.9340980309671 275.5 A6 6 0 0 1 824.9340980309671 288.5 L802.240945069306 288.5 A6 6 0 0 1 802.240945069306 275.5" fill="#fff" transform="matrix(1,0,0,1,0,0)" opacity="0.342857" style="opacity:0.342857;animation-play-state:paused" ></path>
<path d="M2220 287.5 L694.4911073961068 287.5 A6 6 0 0 1 694.4911073961068 300.5 L2220 300.5" fill="#fff" transform="matrix(1,0,0,1,5.643775463104248,0)" style="animation-play-state:paused" ></path>
<path d="M1946.49171159698 287.5 L1960.9834231939599 287.5 A6 6 0 0 1 1960.9834231939599 300.5 L1946.49171159698 300.5 A6 6 0 0 1 1946.49171159698 287.5" fill="#000" transform="matrix(1,0,0,1,-1932.709716796875,0)" opacity="0.171429" style="opacity:0.171429;animation-play-state:paused" ></path></g></mask></defs>


<rect x="0" y="0" width="1920" height="300" fill="url(#ldbk-photon-3kjux0bbt9h-lg)" mask="url(#ldbk-photon-3kjux0bbt9h-mask)" style="animation-play-state:paused" ></rect></g></svg>