<?xml version="1.0" encoding="utf-8"?><svg xmlns="http://www.w3.org/2000/svg" xmlns:xlink="http://www.w3.org/1999/xlink" width="1920" height="966" preserveAspectRatio="xMidYMid" viewBox="0 0 1920 966" style="z-index:1;display:block;background-color:rgb(241, 242, 243);animation-play-state:paused" ><g transform="translate(960,483) scale(1,1) translate(-960,-483)" style="animation-play-state:paused" ><linearGradient id="lg-0.8080721587448496" x1="0" x2="1" y1="0" y2="0" style="animation-play-state:paused" ><stop stop-color="#247cfd" offset="0" style="animation-play-state:paused" ></stop>

  
<stop stop-color="#01204f" offset="1" style="animation-play-state:paused" ></stop></linearGradient>
<path d="M 0 0 M 0 869.884 Q 192 788.182 384 778.567 T 768 853.116 T 1152 801.736 T 1536 695.639 T 1920 710.087 L 1920 311.833 Q 1728 206.779 1536 203.289 T 1152 160.619 T 768 204.239 T 384 99.334 T 0 82.9801 Z" fill="url(#lg-0.8080721587448496)" opacity="0.4" style="opacity:0.4;animation-play-state:paused" ></path>
<path d="M 0 0 M 0 844.638 Q 192 812.026 384 803.34 T 768 767.704 T 1152 745.789 T 1536 759.883 T 1920 694.418 L 1920 233.638 Q 1728 200.316 1536 194.999 T 1152 171.606 T 768 157.965 T 384 134.167 T 0 67.9399 Z" fill="url(#lg-0.8080721587448496)" opacity="0.4" style="opacity:0.4;animation-play-state:paused" ></path>
<path d="M 0 0 M 0 861.179 Q 192 840.283 384 831.407 T 768 830.584 T 1152 752.962 T 1536 715.731 T 1920 710.467 L 1920 261.659 Q 1728 228.067 1536 222.327 T 1152 172.092 T 768 182.647 T 384 123.968 T 0 80.9113 Z" fill="url(#lg-0.8080721587448496)" opacity="0.4" style="opacity:0.4;animation-play-state:paused" ></path>
<path d="M 0 0 M 0 919.835 Q 192 834.757 384 827.283 T 768 801.455 T 1152 756.904 T 1536 684.847 T 1920 744.593 L 1920 289.859 Q 1728 259.028 1536 252.648 T 1152 221.119 T 768 203.423 T 384 120.715 T 0 73.224 Z" fill="url(#lg-0.8080721587448496)" opacity="0.4" style="opacity:0.4;animation-play-state:paused" ></path></g></svg>