<?xml version="1.0" encoding="utf-8"?><svg xmlns="http://www.w3.org/2000/svg" xmlns:xlink="http://www.w3.org/1999/xlink" width="1996" height="253" preserveAspectRatio="xMidYMid" viewBox="0 0 1996 253" style="z-index:1;display:block;animation-play-state:paused" ><g transform="translate(998,126.5) scale(1,1) translate(-998,-126.5)" style="animation-play-state:paused" ><linearGradient id="lg-0.37868498538902695" x1="0" x2="1" y1="0" y2="0" style="animation-play-state:paused" ><stop stop-color="#247cfd" offset="0" style="animation-play-state:paused" ></stop>

  
<stop stop-color="#01204f" offset="1" style="animation-play-state:paused" ></stop></linearGradient>
<path d="M 0 0 M 0 236.394 Q 199.6 229.184 399.2 220.795 T 798.4 205.997 T 1197.6 216.808 T 1596.8 190.261 T 1996 207.253 L 1996 64.4385 Q 1796.4 45.1407 1596.8 42.6235 T 1197.6 40.6406 T 798.4 29.4955 T 399.2 42.9779 T 0 13.3299 Z" fill="url(#lg-0.37868498538902695)" opacity="0.4" style="opacity:0.4;animation-play-state:paused" ></path>
<path d="M 0 0 M 0 221.476 Q 199.6 239.34 399.2 234.023 T 798.4 209.368 T 1197.6 207.297 T 1596.8 189.308 T 1996 185.268 L 1996 70.9035 Q 1796.4 62.859 1596.8 55.6108 T 1197.6 44.6502 T 798.4 41.9291 T 399.2 20.3184 T 0 29.9035 Z" fill="url(#lg-0.37868498538902695)" opacity="0.4" style="opacity:0.4;animation-play-state:paused" ></path>
<path d="M 0 0 M 0 226.428 Q 199.6 220.308 399.2 218.083 T 798.4 220.402 T 1197.6 203.163 T 1596.8 209.845 T 1996 170.382 L 1996 62.433 Q 1796.4 41.6277 1596.8 40.1998 T 1197.6 43.5677 T 798.4 45.649 T 399.2 28.093 T 0 13.782 Z" fill="url(#lg-0.37868498538902695)" opacity="0.4" style="opacity:0.4;animation-play-state:paused" ></path>
<path d="M 0 0 M 0 222.584 Q 199.6 223.398 399.2 218.738 T 798.4 215.046 T 1197.6 199.839 T 1596.8 193.695 T 1996 183.94 L 1996 54.2127 Q 1796.4 65.9514 1596.8 62.4761 T 1197.6 41.9096 T 798.4 38.5471 T 399.2 21.2397 T 0 4.1981 Z" fill="url(#lg-0.37868498538902695)" opacity="0.4" style="opacity:0.4;animation-play-state:paused" ></path></g></svg>